<svg id="page1" xmlns="http://www.w3.org/2000/svg" xmlns:xlink="http://www.w3.org/1999/xlink" xmlns:ev="http://www.w3.org/2001/xml-events" width="2245" height="2381" viewBox="0 0 2245 2381"><style type="text/css"><![CDATA[
.st1 {fill:#000000;font-family:Arial;font-size:10pt}
.st2 {fill:#ffffff;font-family:宋体}
.st3 {fill:#1f6391;font-family:宋体}
]]></style><rect width="2245" height="2381" x="0" y="0" fill="#ffffff" stroke="#808080" /><g id="shape1" transform="translate(970.52,1034.38)"><path fill="rgb(0, 0, 0)" stroke="rgb(238, 124, 49)" d="M0,42C0,18.8,18.8,0,42,0C65.2,0,84,18.8,84,42C84,65.2,65.2,84,42,84C18.8,84,0,65.2,0,42z" /><text class="st1"><tspan class="st2" x="28.5" y="48">yoo+</tspan></text></g><g id="shape2" transform="translate(1121.52,814.88)"><path fill="rgb(52, 152, 219)" stroke="rgb(52, 152, 219)" d="M0,34C0,15.2,23.7,0,53,0C82.3,0,106,15.2,106,34C106,52.8,82.3,68,53,68C23.7,68,0,52.8,0,34z" /><text class="st1"><tspan class="st2" x="27" y="40">家庭服务</tspan></text></g><g id="shape3" transform="translate(1121.52,1291.88)"><path fill="rgb(52, 152, 219)" stroke="rgb(52, 152, 219)" d="M0,34C0,15.2,23.7,0,53,0C82.3,0,106,15.2,106,34C106,52.8,82.3,68,53,68C23.7,68,0,52.8,0,34z" /><text class="st1"><tspan class="st2" x="27" y="40">家族服务</tspan></text></g><g id="shape4" transform="translate(1012.52,1034.38)"><path fill="none" stroke="rgb(35, 110, 161)" d="M0,0L0,-185.5L104.6,-185.5" /><path fill="rgb(35, 110, 161)" stroke="rgb(35, 110, 161)" d="M109,-185.5L103.8,-188.5C104.3,-187.6,104.6,-186.6,104.6,-185.5C104.6,-184.4,104.3,-183.4,103.8,-182.5L109,-185.5z" stroke-linecap="round" stroke-width="1" /></g><g id="shape5" transform="translate(1012.52,1118.38)"><path fill="none" stroke="rgb(35, 110, 161)" d="M0,0L0,207.5L104.6,207.5" /><path fill="rgb(35, 110, 161)" stroke="rgb(35, 110, 161)" d="M109,207.5L103.8,204.5C104.3,205.4,104.6,206.4,104.6,207.5C104.6,208.6,104.3,209.6,103.8,210.5L109,207.5z" stroke-linecap="round" stroke-width="1" /></g><g id="shape6" transform="translate(1312.52,923.38)"><path fill="rgb(52, 152, 219)" stroke="rgb(52, 152, 219)" d="M22,44L92,44C104.2,44,114,34.2,114,22C114,9.8,104.2,0,92,0L22,0C9.8,0,0,9.8,0,22C0,34.2,9.8,44,22,44z" /><text class="st1"><tspan class="st2" x="31" y="28">家庭聊天</tspan></text></g><g id="shape7" transform="translate(1312.52,567.2)"><path fill="rgb(52, 152, 219)" stroke="rgb(52, 152, 219)" d="M22,44L92,44C104.2,44,114,34.2,114,22C114,9.8,104.2,0,92,0L22,0C9.8,0,0,9.8,0,22C0,34.2,9.8,44,22,44z" /><text class="st1"><tspan class="st2" x="31" y="28">智能家居</tspan></text></g><g id="shape8" transform="translate(1299.52,1303.88)"><path fill="rgb(52, 152, 219)" stroke="rgb(52, 152, 219)" d="M22,44L92,44C104.2,44,114,34.2,114,22C114,9.8,104.2,0,92,0L22,0C9.8,0,0,9.8,0,22C0,34.2,9.8,44,22,44z" /><text class="st1"><tspan class="st2" x="37.5" y="28">家族图</tspan></text></g><g id="shape9" transform="translate(1227.52,848.88)"><path fill="none" stroke="rgb(35, 110, 161)" d="M0,0L53,0L53,96.5L80.6,96.5" /><path fill="rgb(35, 110, 161)" stroke="rgb(35, 110, 161)" d="M85,96.5L79.8,93.5C80.3,94.4,80.6,95.4,80.6,96.5C80.6,97.6,80.3,98.6,79.8,99.5L85,96.5z" stroke-linecap="round" stroke-width="1" /></g><g id="shape10" transform="translate(1227.52,848.88)"><path fill="none" stroke="rgb(35, 110, 161)" d="M0,0L53,0L53,-259.7L80.6,-259.7" /><path fill="rgb(35, 110, 161)" stroke="rgb(35, 110, 161)" d="M85,-259.7L79.8,-262.7C80.3,-261.8,80.6,-260.8,80.6,-259.7C80.6,-258.6,80.3,-257.6,79.8,-256.7L85,-259.7z" stroke-linecap="round" stroke-width="1" /></g><g id="shape11" transform="translate(1227.52,1325.88)"><path fill="none" stroke="rgb(35, 110, 161)" d="M0,0L67.6,0" /><path fill="rgb(35, 110, 161)" stroke="rgb(35, 110, 161)" d="M72,0L66.8,-3C67.3,-2.1,67.6,-1.1,67.6,0C67.6,1.1,67.3,2.1,66.8,3L72,0z" stroke-linecap="round" stroke-width="1" /></g><g id="shape12" transform="translate(1537.52,904.88)"><path fill="rgb(52, 152, 219)" stroke="rgb(52, 152, 219)" d="M94.7,60C100.9,60,106,54.9,106,48.7L106,11.3C106,5.1,100.9,0,94.7,0L11.3,0C5.1,0,0,5.1,0,11.3L0,48.7C0,54.9,5.1,60,11.3,60L94.7,60z" /><text class="st1"><tspan class="st2" x="7.5" y="36">家庭成员间单聊</tspan></text></g><g id="shape13" transform="translate(1117.52,674.38)"><path fill="rgb(238, 124, 49)" stroke="rgb(238, 124, 49)" d="M22,44L92,44C104.2,44,114,34.2,114,22C114,9.8,104.2,0,92,0L22,0C9.8,0,0,9.8,0,22C0,34.2,9.8,44,22,44z" /><text class="st1"><tspan class="st2" x="37.5" y="28">服务业</tspan></text></g><g id="shape14" transform="translate(1174.52,814.88)"><path fill="none" stroke="rgb(35, 110, 161)" d="M0,0L0,-92.1" /><path fill="rgb(35, 110, 161)" stroke="rgb(35, 110, 161)" d="M0,-96.5L-3,-91.3C-2.1,-91.8,-1.1,-92.1,-0,-92.1C1.1,-92.1,2.1,-91.8,3,-91.3L0,-96.5z" stroke-linecap="round" stroke-width="1" /></g><g id="shape15" transform="translate(1426.52,945.38)"><path fill="none" stroke="rgb(35, 110, 161)" d="M0,0L79,0L79,-10.5L106.6,-10.5" /><path fill="rgb(35, 110, 161)" stroke="rgb(35, 110, 161)" d="M111,-10.5L105.8,-13.5C106.3,-12.6,106.6,-11.6,106.6,-10.5C106.6,-9.4,106.3,-8.4,105.8,-7.5L111,-10.5z" stroke-linecap="round" stroke-width="1" /></g><g id="shape16" transform="translate(1537.52,983.88)"><path fill="rgb(52, 152, 219)" stroke="rgb(52, 152, 219)" d="M94.7,60C100.9,60,106,54.9,106,48.7L106,11.3C106,5.1,100.9,0,94.7,0L11.3,0C5.1,0,0,5.1,0,11.3L0,48.7C0,54.9,5.1,60,11.3,60L94.7,60z" /><text class="st1"><tspan class="st2" x="27" y="36">家庭群聊</tspan></text></g><g id="shape17" transform="translate(1426.52,945.38)"><path fill="none" stroke="rgb(35, 110, 161)" d="M0,0L79,0L79,68.5L106.6,68.5" /><path fill="rgb(35, 110, 161)" stroke="rgb(35, 110, 161)" d="M111,68.5L105.8,65.5C106.3,66.4,106.6,67.4,106.6,68.5C106.6,69.6,106.3,70.6,105.8,71.5L111,68.5z" stroke-linecap="round" stroke-width="1" /></g><g id="shape18" transform="translate(1537.52,814.88)"><path fill="rgb(52, 152, 219)" stroke="rgb(52, 152, 219)" d="M94.7,60C100.9,60,106,54.9,106,48.7L106,11.3C106,5.1,100.9,0,94.7,0L11.3,0C5.1,0,0,5.1,0,11.3L0,48.7C0,54.9,5.1,60,11.3,60L94.7,60z" /><text class="st1"><tspan class="st2" x="20.5" y="36">与亲友单聊</tspan></text></g><g id="shape19" transform="translate(1537.52,1079.88)"><path fill="rgb(52, 152, 219)" stroke="rgb(52, 152, 219)" d="M94.7,60C100.9,60,106,54.9,106,48.7L106,11.3C106,5.1,100.9,0,94.7,0L11.3,0C5.1,0,0,5.1,0,11.3L0,48.7C0,54.9,5.1,60,11.3,60L94.7,60z" /><text class="st1"><tspan class="st2" x="7.5" y="29">临时参与亲友家</tspan><tspan class="st2" x="33.5" y="43">庭群聊</tspan></text></g><g id="shape20" transform="translate(1426.52,945.38)"><path fill="none" stroke="rgb(35, 110, 161)" d="M0,0L79,0L79,-100.5L106.6,-100.5" /><path fill="rgb(35, 110, 161)" stroke="rgb(35, 110, 161)" d="M111,-100.5L105.8,-103.5C106.3,-102.6,106.6,-101.6,106.6,-100.5C106.6,-99.4,106.3,-98.4,105.8,-97.5L111,-100.5z" stroke-linecap="round" stroke-width="1" /></g><g id="shape21" transform="translate(1426.52,945.38)"><path fill="none" stroke="rgb(35, 110, 161)" d="M0,0L79,0L79,164.5L106.6,164.5" /><path fill="rgb(35, 110, 161)" stroke="rgb(35, 110, 161)" d="M111,164.5L105.8,161.5C106.3,162.4,106.6,163.4,106.6,164.5C106.6,165.6,106.3,166.6,105.8,167.5L111,164.5z" stroke-linecap="round" stroke-width="1" /></g><g id="shape22" transform="translate(1299.52,1200.38)"><path fill="rgb(52, 152, 219)" stroke="rgb(52, 152, 219)" d="M22,44L92,44C104.2,44,114,34.2,114,22C114,9.8,104.2,0,92,0L22,0C9.8,0,0,9.8,0,22C0,34.2,9.8,44,22,44z" /><text class="st1"><tspan class="st2" x="37.5" y="28">亲友圈</tspan></text></g><g id="shape23" transform="translate(1227.52,1325.88)"><path fill="none" stroke="rgb(35, 110, 161)" d="M0,0L40,0L40,-103.5L67.6,-103.5" /><path fill="rgb(35, 110, 161)" stroke="rgb(35, 110, 161)" d="M72,-103.5L66.8,-106.5C67.3,-105.6,67.6,-104.6,67.6,-103.5C67.6,-102.4,67.3,-101.4,66.8,-100.5L72,-103.5z" stroke-linecap="round" stroke-width="1" /></g><g id="shape24" transform="translate(1299.52,1565.43)"><path fill="rgb(52, 152, 219)" stroke="rgb(52, 152, 219)" d="M22,44L92,44C104.2,44,114,34.2,114,22C114,9.8,104.2,0,92,0L22,0C9.8,0,0,9.8,0,22C0,34.2,9.8,44,22,44z" /><text class="st1"><tspan class="st2" x="31" y="28">关系挖掘</tspan></text></g><g id="shape25" transform="translate(1227.52,1325.88)"><path fill="none" stroke="rgb(35, 110, 161)" d="M0,0L40,0L40,261.6L67.6,261.6" /><path fill="rgb(35, 110, 161)" stroke="rgb(35, 110, 161)" d="M72,261.6L66.8,258.6C67.3,259.4,67.6,260.5,67.6,261.6C67.6,262.6,67.3,263.7,66.8,264.6L72,261.6z" stroke-linecap="round" stroke-width="1" /></g><g id="shape26" transform="translate(1322.52,454.2)"><path fill="rgb(238, 124, 49)" stroke="rgb(238, 124, 49)" d="M47,62L94,31L47,0L0,31L47,62z" /><text class="st1"><tspan class="st2" x="27.5" y="37">物联网</tspan></text></g><g id="shape27" transform="translate(1369.52,567.2)"><path fill="none" stroke="rgb(35, 110, 161)" d="M0,0L0,-46.6" /><path fill="rgb(35, 110, 161)" stroke="rgb(35, 110, 161)" d="M0,-51L-3,-45.8C-2.1,-46.3,-1.1,-46.6,-0,-46.6C1.1,-46.6,2.1,-46.3,3,-45.8L0,-51z" stroke-linecap="round" stroke-width="1" /></g><g id="shape28" transform="translate(1309.52,1686.93)"><path fill="rgb(238, 124, 49)" stroke="rgb(238, 124, 49)" d="M47,62L94,31L47,0L0,31L47,62z" /><text class="st1"><tspan class="st2" x="27.5" y="37">区块链</tspan></text></g><g id="shape29" transform="translate(1356.52,1609.43)"><path fill="none" stroke="rgb(35, 110, 161)" d="M0,0L0,73.1" /><path fill="rgb(35, 110, 161)" stroke="rgb(35, 110, 161)" d="M0,77.5L3,72.3C2.1,72.8,1.1,73.1,-0,73.1C-1.1,73.1,-2.1,72.8,-3,72.3L0,77.5z" stroke-linecap="round" stroke-width="1" /></g><g id="shape30" transform="translate(1508.52,463.2)"><path fill="rgb(82, 114, 148)" stroke="rgb(82, 114, 148)" d="M22,44L92,44C104.2,44,114,34.2,114,22C114,9.8,104.2,0,92,0L22,0C9.8,0,0,9.8,0,22C0,34.2,9.8,44,22,44z" /><text class="st1"><tspan class="st2" x="1.5" y="28">互联网-物联网平台</tspan></text></g><g id="shape31" transform="translate(1416.52,485.2)"><path fill="none" stroke="rgb(35, 110, 161)" d="M0,0L87.6,0" /><path fill="rgb(35, 110, 161)" stroke="rgb(35, 110, 161)" d="M92,0L86.8,-3C87.3,-2.1,87.6,-1.1,87.6,0C87.6,1.1,87.3,2.1,86.8,3L92,0z" stroke-linecap="round" stroke-width="1" /></g><g id="shape32" transform="translate(1299.52,1784.93)"><path fill="rgb(82, 114, 148)" stroke="rgb(82, 114, 148)" d="M22,44L92,44C104.2,44,114,34.2,114,22C114,9.8,104.2,0,92,0L22,0C9.8,0,0,9.8,0,22C0,34.2,9.8,44,22,44z" /><text class="st1"><tspan class="st2" x="31" y="28">超级路由</tspan></text></g><g id="shape33" transform="translate(1356.52,1748.93)"><path fill="none" stroke="rgb(35, 110, 161)" d="M0,0L0,31.6" /><path fill="rgb(35, 110, 161)" stroke="rgb(35, 110, 161)" d="M0,36L3,30.8C2.1,31.3,1.1,31.6,-0,31.6C-1.1,31.6,-2.1,31.3,-3,30.8L0,36z" stroke-linecap="round" stroke-width="1" /></g><g id="shape34" transform="translate(1507,1785.93)"><path fill="rgb(82, 114, 148)" stroke="rgb(82, 114, 148)" d="M20.5,41L93.5,41C104.8,41,114,31.8,114,20.5C114,9.2,104.8,0,93.5,0L20.5,0C9.2,0,0,9.2,0,20.5C0,31.8,9.2,41,20.5,41z" /><text class="st1"><tspan class="st2" x="5" y="19.5">去中心化价值交易</tspan><tspan class="st2" x="44" y="33.5">平台</tspan></text></g><g id="shape35" transform="translate(1299.52,1898.93)"><path fill="rgb(82, 114, 148)" stroke="rgb(82, 114, 148)" d="M22,44L92,44C104.2,44,114,34.2,114,22C114,9.8,104.2,0,92,0L22,0C9.8,0,0,9.8,0,22C0,34.2,9.8,44,22,44z" /><text class="st1"><tspan class="st2" x="5" y="21">分布式超大规模计</tspan><tspan class="st2" x="37.5" y="35">算平台</tspan></text></g><g id="shape36" transform="translate(1356.52,1828.93)"><path fill="none" stroke="rgb(35, 110, 161)" d="M0,0L0,65.6" /><path fill="rgb(35, 110, 161)" stroke="rgb(35, 110, 161)" d="M0,70L3,64.8C2.1,65.3,1.1,65.6,-0,65.6C-1.1,65.6,-2.1,65.3,-3,64.8L0,70z" stroke-linecap="round" stroke-width="1" /></g><g id="shape37" transform="translate(1403.52,1717.93)"><path fill="none" stroke="rgb(35, 110, 161)" d="M0,0L71.5,0L71.5,88.5L99.1,88.5" /><path fill="rgb(35, 110, 161)" stroke="rgb(35, 110, 161)" d="M103.5,88.5L98.3,85.5C98.8,86.4,99.1,87.4,99.1,88.5C99.1,89.6,98.8,90.6,98.3,91.5L103.5,88.5z" stroke-linecap="round" stroke-width="1" /></g><g id="shape38" transform="translate(1413.52,1806.93)"><path fill="none" stroke="rgb(35, 110, 161)" d="M0,0L61.5,0L89.1,-0.4" /><path fill="rgb(35, 110, 161)" stroke="rgb(35, 110, 161)" d="M93.5,-0.5L88.2,-3.4C88.8,-2.5,89.1,-1.5,89.1,-0.4C89.1,0.7,88.8,1.7,88.3,2.6L93.5,-0.5z" stroke-linecap="round" stroke-width="1" /></g><g id="shape39" transform="translate(1413.52,1920.93)"><path fill="none" stroke="rgb(35, 110, 161)" d="M0,0L61.5,0L61.5,-114.5L89.1,-114.5" /><path fill="rgb(35, 110, 161)" stroke="rgb(35, 110, 161)" d="M93.5,-114.5L88.3,-117.5C88.8,-116.6,89.1,-115.6,89.1,-114.5C89.1,-113.4,88.8,-112.4,88.3,-111.5L93.5,-114.5z" stroke-linecap="round" stroke-width="1" /></g><g id="shape40" transform="translate(1537.52,1184.38)"><path fill="rgb(52, 152, 219)" stroke="rgb(52, 152, 219)" d="M94.7,60C100.9,60,106,54.9,106,48.7L106,11.3C106,5.1,100.9,0,94.7,0L11.3,0C5.1,0,0,5.1,0,11.3L0,48.7C0,54.9,5.1,60,11.3,60L94.7,60z" /><text class="st1"><tspan class="st2" x="7.5" y="29">以家庭为单位搜</tspan><tspan class="st2" x="7.5" y="43">索亲友联系方式</tspan></text></g><g id="shape41" transform="translate(1413.52,1325.88)"><path fill="none" stroke="rgb(35, 110, 161)" d="M0,0L92,0L92,-111.5L119.6,-111.5" /><path fill="rgb(35, 110, 161)" stroke="rgb(35, 110, 161)" d="M124,-111.5L118.8,-114.5C119.3,-113.6,119.6,-112.6,119.6,-111.5C119.6,-110.4,119.3,-109.4,118.8,-108.5L124,-111.5z" stroke-linecap="round" stroke-width="1" /></g><g id="shape42" transform="translate(1643.52,1214.38)"><path fill="none" stroke="rgb(35, 110, 161)" d="M0,0L32,0L32,-104.5L4.4,-104.5" /><path fill="rgb(35, 110, 161)" stroke="rgb(35, 110, 161)" d="M0,-104.5L5.2,-101.5C4.7,-102.4,4.4,-103.4,4.4,-104.5C4.4,-105.6,4.7,-106.6,5.2,-107.5L0,-104.5z" stroke-linecap="round" stroke-width="1" /><rect width="13" height="14" x="18" y="-57.3" fill="rgb(255, 255, 255)" /><text class="st1"><tspan class="st3" x="18" y="-46.3">授权</tspan></text></g><g id="shape43" transform="translate(1643.52,1214.38)"><path fill="none" stroke="rgb(35, 110, 161)" d="M0,0L32,0L32,-369.5L4.4,-369.5" /><path fill="rgb(35, 110, 161)" stroke="rgb(35, 110, 161)" d="M0,-369.5L5.2,-366.5C4.7,-367.4,4.4,-368.4,4.4,-369.5C4.4,-370.6,4.7,-371.6,5.2,-372.5L0,-369.5z" stroke-linecap="round" stroke-width="1" /></g><g id="shape44" transform="translate(1609.52,567.2)"><path fill="rgb(52, 152, 219)" stroke="rgb(52, 152, 219)" d="M22,44L92,44C104.2,44,114,34.2,114,22C114,9.8,104.2,0,92,0L22,0C9.8,0,0,9.8,0,22C0,34.2,9.8,44,22,44z" /><text class="st1"><tspan class="st2" x="5" y="28">自主智能硬件产品</tspan></text></g><g id="shape45" transform="translate(1426.52,589.2)"><path fill="none" stroke="rgb(35, 110, 161)" d="M0,0L178.6,0" /><path fill="rgb(35, 110, 161)" stroke="rgb(35, 110, 161)" d="M183,0L177.8,-3C178.3,-2.1,178.6,-1.1,178.6,0C178.6,1.1,178.3,2.1,177.8,3L183,0z" stroke-linecap="round" stroke-width="1" /></g><g id="shape46" transform="translate(1565.52,507.2)"><path fill="none" stroke="rgb(35, 110, 161)" d="M0,0L0,82L39.6,82" /><path fill="rgb(35, 110, 161)" stroke="rgb(35, 110, 161)" d="M44,82L38.8,79C39.3,79.9,39.6,80.9,39.6,82C39.6,83.1,39.3,84.1,38.8,85L44,82z" stroke-linecap="round" stroke-width="1" /></g><g id="shape47" transform="translate(1537.52,1566.93)"><path fill="rgb(82, 114, 148)" stroke="rgb(82, 114, 148)" d="M20.5,41L93.5,41C104.8,41,114,31.8,114,20.5C114,9.2,104.8,0,93.5,0L20.5,0C9.2,0,0,9.2,0,20.5C0,31.8,9.2,41,20.5,41z" /><text class="st1"><tspan class="st2" x="31" y="26.5">信用体系</tspan></text></g><g id="shape48" transform="translate(1537.52,1634.63)"><path fill="rgb(82, 114, 148)" stroke="rgb(82, 114, 148)" d="M20.5,41L93.5,41C104.8,41,114,31.8,114,20.5C114,9.2,104.8,0,93.5,0L20.5,0C9.2,0,0,9.2,0,20.5C0,31.8,9.2,41,20.5,41z" /><text class="st1"><tspan class="st2" x="31" y="26.5">公共安全</tspan></text></g><g id="shape49" transform="translate(1413.52,1587.43)"><path fill="none" stroke="rgb(35, 110, 161)" d="M0,0L119.6,0" /><path fill="rgb(35, 110, 161)" stroke="rgb(35, 110, 161)" d="M124,0L118.8,-3C119.3,-2.1,119.6,-1.1,119.6,0C119.6,1.1,119.3,2.1,118.8,3L124,0z" stroke-linecap="round" stroke-width="1" /></g><g id="shape50" transform="translate(1413.52,1587.43)"><path fill="none" stroke="rgb(35, 110, 161)" d="M0,0L92,0L92,67.7L119.6,67.7" /><path fill="rgb(35, 110, 161)" stroke="rgb(35, 110, 161)" d="M124,67.7L118.8,64.7C119.3,65.6,119.6,66.6,119.6,67.7C119.6,68.8,119.3,69.8,118.8,70.7L124,67.7z" stroke-linecap="round" stroke-width="1" /></g><g id="shape51" transform="translate(922.52,674.38)"><path fill="rgb(52, 152, 219)" stroke="rgb(52, 152, 219)" d="M22,44L92,44C104.2,44,114,34.2,114,22C114,9.8,104.2,0,92,0L22,0C9.8,0,0,9.8,0,22C0,34.2,9.8,44,22,44z" /><text class="st1"><tspan class="st2" x="18" y="28">服务交易平台</tspan></text></g><g id="shape52" transform="translate(1117.52,696.38)"><path fill="none" stroke="rgb(35, 110, 161)" d="M0,0L-76.6,0" /><path fill="rgb(35, 110, 161)" stroke="rgb(35, 110, 161)" d="M-81,0L-75.8,3C-76.3,2.1,-76.6,1.1,-76.6,-0C-76.6,-1.1,-76.3,-2.1,-75.8,-3L-81,0z" stroke-linecap="round" stroke-width="1" /></g><g id="shape53" transform="translate(748.52,537.77)"><path fill="rgb(52, 152, 219)" stroke="rgb(52, 152, 219)" d="M94.7,60C100.9,60,106,54.9,106,48.7L106,11.3C106,5.1,100.9,0,94.7,0L11.3,0C5.1,0,0,5.1,0,11.3L0,48.7C0,54.9,5.1,60,11.3,60L94.7,60z" /><text class="st1"><tspan class="st2" x="40" y="36">教育</tspan></text></g><g id="shape54" transform="translate(922.52,696.38)"><path fill="none" stroke="rgb(35, 110, 161)" d="M0,0L-36,0L-36,-128.6L-63.6,-128.6" /><path fill="rgb(35, 110, 161)" stroke="rgb(35, 110, 161)" d="M-68,-128.6L-62.8,-125.6C-63.3,-126.5,-63.6,-127.5,-63.6,-128.6C-63.6,-129.7,-63.3,-130.7,-62.8,-131.6L-68,-128.6z" stroke-linecap="round" stroke-width="1" /></g><g id="shape55" transform="translate(748.52,620.77)"><path fill="rgb(52, 152, 219)" stroke="rgb(52, 152, 219)" d="M94.7,60C100.9,60,106,54.9,106,48.7L106,11.3C106,5.1,100.9,0,94.7,0L11.3,0C5.1,0,0,5.1,0,11.3L0,48.7C0,54.9,5.1,60,11.3,60L94.7,60z" /><text class="st1"><tspan class="st2" x="40" y="36">维修</tspan></text></g><g id="shape56" transform="translate(922.52,696.38)"><path fill="none" stroke="rgb(35, 110, 161)" d="M0,0L-36,0L-36,-45.6L-63.6,-45.6" /><path fill="rgb(35, 110, 161)" stroke="rgb(35, 110, 161)" d="M-68,-45.6L-62.8,-42.6C-63.3,-43.5,-63.6,-44.5,-63.6,-45.6C-63.6,-46.7,-63.3,-47.7,-62.8,-48.6L-68,-45.6z" stroke-linecap="round" stroke-width="1" /></g><g id="shape57" transform="translate(748.52,703.77)"><path fill="rgb(52, 152, 219)" stroke="rgb(52, 152, 219)" d="M94.7,60C100.9,60,106,54.9,106,48.7L106,11.3C106,5.1,100.9,0,94.7,0L11.3,0C5.1,0,0,5.1,0,11.3L0,48.7C0,54.9,5.1,60,11.3,60L94.7,60z" /><text class="st1"><tspan class="st2" x="40" y="36">代驾</tspan></text></g><g id="shape58" transform="translate(922.52,696.38)"><path fill="none" stroke="rgb(35, 110, 161)" d="M0,0L-36,0L-36,37.4L-63.6,37.4" /><path fill="rgb(35, 110, 161)" stroke="rgb(35, 110, 161)" d="M-68,37.4L-62.8,40.4C-63.3,39.5,-63.6,38.5,-63.6,37.4C-63.6,36.3,-63.3,35.3,-62.8,34.4L-68,37.4z" stroke-linecap="round" stroke-width="1" /></g><g id="shape59" transform="translate(748.52,786.77)"><path fill="rgb(52, 152, 219)" stroke="rgb(52, 152, 219)" d="M94.7,60C100.9,60,106,54.9,106,48.7L106,11.3C106,5.1,100.9,0,94.7,0L11.3,0C5.1,0,0,5.1,0,11.3L0,48.7C0,54.9,5.1,60,11.3,60L94.7,60z" /><text class="st1"><tspan class="st2" x="40" y="36">跑腿</tspan></text></g><g id="shape60" transform="translate(922.52,696.38)"><path fill="none" stroke="rgb(35, 110, 161)" d="M0,0L-36,0L-36,120.4L-63.6,120.4" /><path fill="rgb(35, 110, 161)" stroke="rgb(35, 110, 161)" d="M-68,120.4L-62.8,123.4C-63.3,122.5,-63.6,121.5,-63.6,120.4C-63.6,119.3,-63.3,118.3,-62.8,117.4L-68,120.4z" stroke-linecap="round" stroke-width="1" /></g><g id="shape61" transform="translate(748.52,871.38)"><path fill="rgb(52, 152, 219)" stroke="rgb(52, 152, 219)" d="M94.7,60C100.9,60,106,54.9,106,48.7L106,11.3C106,5.1,100.9,0,94.7,0L11.3,0C5.1,0,0,5.1,0,11.3L0,48.7C0,54.9,5.1,60,11.3,60L94.7,60z" /><text class="st1"><tspan class="st2" x="27" y="36">宠物寄养</tspan></text></g><g id="shape62" transform="translate(922.52,696.38)"><path fill="none" stroke="rgb(35, 110, 161)" d="M0,0L-36,0L-36,205L-63.6,205" /><path fill="rgb(35, 110, 161)" stroke="rgb(35, 110, 161)" d="M-68,205L-62.8,208C-63.3,207.1,-63.6,206.1,-63.6,205C-63.6,203.9,-63.3,202.9,-62.8,202L-68,205z" stroke-linecap="round" stroke-width="1" /></g><g id="shape63" transform="translate(748.52,950.38)"><path fill="rgb(52, 152, 219)" stroke="rgb(52, 152, 219)" d="M94.7,60C100.9,60,106,54.9,106,48.7L106,11.3C106,5.1,100.9,0,94.7,0L11.3,0C5.1,0,0,5.1,0,11.3L0,48.7C0,54.9,5.1,60,11.3,60L94.7,60z" /><text class="st1"><tspan class="st2" x="27" y="36">等等服务</tspan></text></g><g id="shape64" transform="translate(922.52,696.38)"><path fill="none" stroke="rgb(35, 110, 161)" d="M0,0L-36,0L-36,284L-63.6,284" /><path fill="rgb(35, 110, 161)" stroke="rgb(35, 110, 161)" d="M-68,284L-62.8,287C-63.3,286.1,-63.6,285.1,-63.6,284C-63.6,282.9,-63.3,281.9,-62.8,281L-68,284z" stroke-linecap="round" stroke-width="1" /></g><g id="shape65" transform="translate(748.52,1082.18)"><path fill="rgb(52, 152, 219)" stroke="rgb(52, 152, 219)" d="M0,34C0,15.2,23.7,0,53,0C82.3,0,106,15.2,106,34C106,52.8,82.3,68,53,68C23.7,68,0,52.8,0,34z" /><text class="st1"><tspan class="st2" x="40" y="40">媒体</tspan></text></g><g id="shape66" transform="translate(970.52,1076.38)"><path fill="none" stroke="rgb(35, 110, 161)" d="M0,0L-84,0L-84,39.8L-111.6,39.8" /><path fill="rgb(35, 110, 161)" stroke="rgb(35, 110, 161)" d="M-116,39.8L-110.8,42.8C-111.3,41.9,-111.6,40.9,-111.6,39.8C-111.6,38.7,-111.3,37.7,-110.8,36.8L-116,39.8z" stroke-linecap="round" stroke-width="1" /></g><g id="shape67" transform="translate(748.52,1207.18)"><path fill="rgb(52, 152, 219)" stroke="rgb(52, 152, 219)" d="M0,34C0,15.2,23.7,0,53,0C82.3,0,106,15.2,106,34C106,52.8,82.3,68,53,68C23.7,68,0,52.8,0,34z" /><text class="st1"><tspan class="st2" x="27" y="40">家庭助手</tspan></text></g><g id="shape68" transform="translate(970.52,1076.38)"><path fill="none" stroke="rgb(35, 110, 161)" d="M0,0L-84,0L-84,164.8L-111.6,164.8" /><path fill="rgb(35, 110, 161)" stroke="rgb(35, 110, 161)" d="M-116,164.8L-110.8,167.8C-111.3,166.9,-111.6,165.9,-111.6,164.8C-111.6,163.7,-111.3,162.7,-110.8,161.8L-116,164.8z" stroke-linecap="round" stroke-width="1" /></g><g id="shape69" transform="translate(852.52,1332.18)"><path fill="rgb(238, 124, 49)" stroke="rgb(238, 124, 49)" d="M47,62L94,31L47,0L0,31L47,62z" /><text class="st1"><tspan class="st2" x="27.5" y="37">裸眼3d</tspan></text></g><g id="shape70" transform="translate(663.52,1332.18)"><path fill="rgb(238, 124, 49)" stroke="rgb(238, 124, 49)" d="M47,62L94,31L47,0L0,31L47,62z" /><text class="st1"><tspan class="st2" x="21" y="37">人工智能</tspan></text></g><g id="shape71" transform="translate(801.52,1275.18)"><path fill="none" stroke="rgb(35, 110, 161)" d="M0,0L0,25L98,25L98,52.6" /><path fill="rgb(35, 110, 161)" stroke="rgb(35, 110, 161)" d="M98,57L101,51.8C100.1,52.3,99.1,52.6,98,52.6C96.9,52.6,95.9,52.3,95,51.8L98,57z" stroke-linecap="round" stroke-width="1" /></g><g id="shape72" transform="translate(801.52,1275.18)"><path fill="none" stroke="rgb(35, 110, 161)" d="M0,0L0,25L-91,25L-91,52.6" /><path fill="rgb(35, 110, 161)" stroke="rgb(35, 110, 161)" d="M-91,57L-88,51.8C-88.9,52.3,-89.9,52.6,-91,52.6C-92.1,52.6,-93.1,52.3,-94,51.8L-91,57z" stroke-linecap="round" stroke-width="1" /></g><g id="shape73" transform="translate(530.52,1045.18)"><path fill="rgb(52, 152, 219)" stroke="rgb(52, 152, 219)" d="M22,44L92,44C104.2,44,114,34.2,114,22C114,9.8,104.2,0,92,0L22,0C9.8,0,0,9.8,0,22C0,34.2,9.8,44,22,44z" /><text class="st1"><tspan class="st2" x="31" y="28">官方媒体</tspan></text></g><g id="shape74" transform="translate(748.52,1116.18)"><path fill="none" stroke="rgb(35, 110, 161)" d="M0,0L-72,0L-72,-49L-99.6,-49" /><path fill="rgb(35, 110, 161)" stroke="rgb(35, 110, 161)" d="M-104,-49L-98.8,-46C-99.3,-46.9,-99.6,-47.9,-99.6,-49C-99.6,-50.1,-99.3,-51.1,-98.8,-52L-104,-49z" stroke-linecap="round" stroke-width="1" /></g><g id="shape75" transform="translate(530.52,1156.18)"><path fill="rgb(52, 152, 219)" stroke="rgb(52, 152, 219)" d="M22,44L92,44C104.2,44,114,34.2,114,22C114,9.8,104.2,0,92,0L22,0C9.8,0,0,9.8,0,22C0,34.2,9.8,44,22,44z" /><text class="st1"><tspan class="st2" x="37.5" y="28">自媒体</tspan></text></g><g id="shape76" transform="translate(748.52,1116.18)"><path fill="none" stroke="rgb(35, 110, 161)" d="M0,0L-72,0L-72,62L-99.6,62" /><path fill="rgb(35, 110, 161)" stroke="rgb(35, 110, 161)" d="M-104,62L-98.8,65C-99.3,64.1,-99.6,63.1,-99.6,62C-99.6,60.9,-99.3,59.9,-98.8,59L-104,62z" stroke-linecap="round" stroke-width="1" /></g><g id="shape77" transform="translate(653.52,1478.38)"><path fill="rgb(82, 114, 148)" stroke="rgb(82, 114, 148)" d="M22,44L92,44C104.2,44,114,34.2,114,22C114,9.8,104.2,0,92,0L22,0C9.8,0,0,9.8,0,22C0,34.2,9.8,44,22,44z" /><text class="st1"><tspan class="st2" x="11.5" y="28">智能商业机器人</tspan></text></g><g id="shape78" transform="translate(842.52,1478.38)"><path fill="rgb(82, 114, 148)" stroke="rgb(82, 114, 148)" d="M22,44L92,44C104.2,44,114,34.2,114,22C114,9.8,104.2,0,92,0L22,0C9.8,0,0,9.8,0,22C0,34.2,9.8,44,22,44z" /><text class="st1"><tspan class="st2" x="18" y="28">智能家庭助手</tspan></text></g><g id="shape79" transform="translate(710.52,1394.18)"><path fill="none" stroke="rgb(35, 110, 161)" d="M0,0L0,79.8" /><path fill="rgb(35, 110, 161)" stroke="rgb(35, 110, 161)" d="M0,84.2L3,79C2.1,79.5,1.1,79.8,-0,79.8C-1.1,79.8,-2.1,79.5,-3,79L0,84.2z" stroke-linecap="round" stroke-width="1" /></g><g id="shape80" transform="translate(710.52,1394.18)"><path fill="none" stroke="rgb(35, 110, 161)" d="M0,0L0,52.2L189,52.2L189,79.8" /><path fill="rgb(35, 110, 161)" stroke="rgb(35, 110, 161)" d="M189,84.2L192,79C191.1,79.5,190.1,79.8,189,79.8C187.9,79.8,186.9,79.5,186,79L189,84.2z" stroke-linecap="round" stroke-width="1" /></g><g id="shape81" transform="translate(899.52,1394.18)"><path fill="none" stroke="rgb(35, 110, 161)" d="M0,0L0,79.8" /><path fill="rgb(35, 110, 161)" stroke="rgb(35, 110, 161)" d="M0,84.2L3,79C2.1,79.5,1.1,79.8,-0,79.8C-1.1,79.8,-2.1,79.5,-3,79L0,84.2z" stroke-linecap="round" stroke-width="1" /></g><g id="shape82" transform="translate(899.52,1394.18)"><path fill="none" stroke="rgb(35, 110, 161)" d="M0,0L0,52.2L-189,52.2L-189,79.8" /><path fill="rgb(35, 110, 161)" stroke="rgb(35, 110, 161)" d="M-189,84.2L-186,79C-186.9,79.5,-187.9,79.8,-189,79.8C-190.1,79.8,-191.1,79.5,-192,79L-189,84.2z" stroke-linecap="round" stroke-width="1" /></g><g id="shape83" transform="translate(1537.52,1492.23)"><path fill="rgb(52, 152, 219)" stroke="rgb(52, 152, 219)" d="M22,44L92,44C104.2,44,114,34.2,114,22C114,9.8,104.2,0,92,0L22,0C9.8,0,0,9.8,0,22C0,34.2,9.8,44,22,44z" /><text class="st1"><tspan class="st2" x="44" y="28">寻根</tspan></text></g><g id="shape84" transform="translate(1413.52,1587.43)"><path fill="none" stroke="rgb(35, 110, 161)" d="M0,0L92,0L92,-73.2L119.6,-73.2" /><path fill="rgb(35, 110, 161)" stroke="rgb(35, 110, 161)" d="M124,-73.2L118.8,-76.2C119.3,-75.3,119.6,-74.3,119.6,-73.2C119.6,-72.1,119.3,-71.1,118.8,-70.2L124,-73.2z" stroke-linecap="round" stroke-width="1" /></g><g id="shape85" transform="translate(1785.52,502)"><path fill="rgb(52, 152, 219)" stroke="rgb(52, 152, 219)" d="M94.7,60C100.9,60,106,54.9,106,48.7L106,11.3C106,5.1,100.9,0,94.7,0L11.3,0C5.1,0,0,5.1,0,11.3L0,48.7C0,54.9,5.1,60,11.3,60L94.7,60z" /><text class="st1"><tspan class="st2" x="7.5" y="36">智能中央控制器</tspan></text></g><g id="shape86" transform="translate(1723.52,589.2)"><path fill="none" stroke="rgb(35, 110, 161)" d="M0,0L30,0L30,-57.2L57.6,-57.2" /><path fill="rgb(35, 110, 161)" stroke="rgb(35, 110, 161)" d="M62,-57.2L56.8,-60.2C57.3,-59.3,57.6,-58.3,57.6,-57.2C57.6,-56.1,57.3,-55.1,56.8,-54.2L62,-57.2z" stroke-linecap="round" stroke-width="1" /></g><g id="shape87" transform="translate(1785.52,623)"><path fill="rgb(52, 152, 219)" stroke="rgb(52, 152, 219)" d="M94.7,60C100.9,60,106,54.9,106,48.7L106,11.3C106,5.1,100.9,0,94.7,0L11.3,0C5.1,0,0,5.1,0,11.3L0,48.7C0,54.9,5.1,60,11.3,60L94.7,60z" /><text class="st1"><tspan class="st2" x="14" y="36">智能硬件产品</tspan></text></g><g id="shape88" transform="translate(1723.52,589.2)"><path fill="none" stroke="rgb(35, 110, 161)" d="M0,0L30,0L30,63.8L57.6,63.8" /><path fill="rgb(35, 110, 161)" stroke="rgb(35, 110, 161)" d="M62,63.8L56.8,60.8C57.3,61.7,57.6,62.7,57.6,63.8C57.6,64.9,57.3,65.9,56.8,66.8L62,63.8z" stroke-linecap="round" stroke-width="1" /></g><g id="shape89" transform="translate(353.52,1082.18)"><path fill="rgb(255, 175, 0)" stroke="rgb(255, 175, 0)" d="M0,34C0,15.2,23.7,0,53,0C82.3,0,106,15.2,106,34C106,52.8,82.3,68,53,68C23.7,68,0,52.8,0,34z" /><text class="st1"><tspan class="st2" x="27" y="40">文化输出</tspan></text></g><g id="shape90" transform="translate(530.52,1067.18)"><path fill="none" stroke="rgb(35, 110, 161)" d="M0,0L-39,0L-39,49L-66.6,49" /><path fill="rgb(35, 110, 161)" stroke="rgb(35, 110, 161)" d="M-71,49L-65.8,52C-66.3,51.1,-66.6,50.1,-66.6,49C-66.6,47.9,-66.3,46.9,-65.8,46L-71,49z" stroke-linecap="round" stroke-width="1" /></g><g id="shape91" transform="translate(530.52,1178.18)"><path fill="none" stroke="rgb(35, 110, 161)" d="M0,0L-39,0L-39,-62L-66.6,-62" /><path fill="rgb(35, 110, 161)" stroke="rgb(35, 110, 161)" d="M-71,-62L-65.8,-59C-66.3,-59.9,-66.6,-60.9,-66.6,-62C-66.6,-63.1,-66.3,-64.1,-65.8,-65L-71,-62z" stroke-linecap="round" stroke-width="1" /></g><g id="shape92" transform="translate(1121.52,1042.38)"><path fill="rgb(255, 175, 0)" stroke="rgb(255, 175, 0)" d="M0,34C0,15.2,23.7,0,53,0C82.3,0,106,15.2,106,34C106,52.8,82.3,68,53,68C23.7,68,0,52.8,0,34z" /><text class="st1"><tspan class="st2" x="27" y="40">文化输出</tspan></text></g><g id="shape93" transform="translate(1174.52,882.88)"><path fill="none" stroke="rgb(35, 110, 161)" d="M0,0L0,155.1" /><path fill="rgb(35, 110, 161)" stroke="rgb(35, 110, 161)" d="M0,159.5L3,154.3C2.1,154.8,1.1,155.1,-0,155.1C-1.1,155.1,-2.1,154.8,-3,154.3L0,159.5z" stroke-linecap="round" stroke-width="1" /></g><g id="shape94" transform="translate(1174.52,1291.88)"><path fill="none" stroke="rgb(35, 110, 161)" d="M0,0L0,-177.1" /><path fill="rgb(35, 110, 161)" stroke="rgb(35, 110, 161)" d="M0,-181.5L-3,-176.3C-2.1,-176.8,-1.1,-177.1,-0,-177.1C1.1,-177.1,2.1,-176.8,3,-176.3L0,-181.5z" stroke-linecap="round" stroke-width="1" /></g><g id="shape95" transform="translate(1512.52,338)"><path fill="rgb(52, 152, 219)" stroke="rgb(52, 152, 219)" d="M94.7,60C100.9,60,106,54.9,106,48.7L106,11.3C106,5.1,100.9,0,94.7,0L11.3,0C5.1,0,0,5.1,0,11.3L0,48.7C0,54.9,5.1,60,11.3,60L94.7,60z" /><text class="st1"><tspan class="st2" x="27" y="36">对外接口</tspan></text></g><g id="shape96" transform="translate(926.52,545.97)"><path fill="rgb(27, 188, 157)" stroke="rgb(27, 188, 157)" d="M94.7,60C100.9,60,106,54.9,106,48.7L106,11.3C106,5.1,100.9,0,94.7,0L11.3,0C5.1,0,0,5.1,0,11.3L0,48.7C0,54.9,5.1,60,11.3,60L94.7,60z" /><text class="st1"><tspan class="st2" x="14" y="36">个人价值挖掘</tspan></text></g><g id="shape97" transform="translate(979.52,674.38)"><path fill="none" stroke="rgb(35, 110, 161)" d="M0,0L0,-64" /><path fill="rgb(35, 110, 161)" stroke="rgb(35, 110, 161)" d="M0,-68.4L-3,-63.2C-2.1,-63.7,-1.1,-64,-0,-64C1.1,-64,2.1,-63.7,3,-63.2L0,-68.4z" stroke-linecap="round" stroke-width="1" /></g><g id="shape98" transform="translate(1537.52,1295.88)"><path fill="rgb(52, 152, 219)" stroke="rgb(52, 152, 219)" d="M94.7,60C100.9,60,106,54.9,106,48.7L106,11.3C106,5.1,100.9,0,94.7,0L11.3,0C5.1,0,0,5.1,0,11.3L0,48.7C0,54.9,5.1,60,11.3,60L94.7,60z" /><text class="st1"><tspan class="st2" x="27" y="36">家族活动</tspan></text></g><g id="shape99" transform="translate(1413.52,1325.88)"><path fill="none" stroke="rgb(35, 110, 161)" d="M0,0L119.6,0" /><path fill="rgb(35, 110, 161)" stroke="rgb(35, 110, 161)" d="M124,0L118.8,-3C119.3,-2.1,119.6,-1.1,119.6,0C119.6,1.1,119.3,2.1,118.8,3L124,0z" stroke-linecap="round" stroke-width="1" /></g><g id="shape100" transform="translate(1537.52,1394.05)"><path fill="rgb(52, 152, 219)" stroke="rgb(52, 152, 219)" d="M94.7,60C100.9,60,106,54.9,106,48.7L106,11.3C106,5.1,100.9,0,94.7,0L11.3,0C5.1,0,0,5.1,0,11.3L0,48.7C0,54.9,5.1,60,11.3,60L94.7,60z" /><text class="st1"><tspan class="st2" x="27" y="36">家族公告</tspan></text></g><g id="shape101" transform="translate(1735,1200.38)"><path fill="rgb(52, 152, 219)" stroke="rgb(52, 152, 219)" d="M94.7,60C100.9,60,106,54.9,106,48.7L106,11.3C106,5.1,100.9,0,94.7,0L11.3,0C5.1,0,0,5.1,0,11.3L0,48.7C0,54.9,5.1,60,11.3,60L94.7,60z" /><text class="st1"><tspan class="st2" x="14" y="36">一键发送请帖</tspan></text></g><g id="shape102" transform="translate(1643.52,1325.88)"><path fill="none" stroke="rgb(35, 110, 161)" d="M0,0L59.5,0L59.5,-95.5L87.1,-95.5" /><path fill="rgb(35, 110, 161)" stroke="rgb(35, 110, 161)" d="M91.5,-95.5L86.3,-98.5C86.8,-97.6,87.1,-96.6,87.1,-95.5C87.1,-94.4,86.8,-93.4,86.3,-92.5L91.5,-95.5z" stroke-linecap="round" stroke-width="1" /></g><g id="shape103" transform="translate(1735,1295.88)"><path fill="rgb(52, 152, 219)" stroke="rgb(52, 152, 219)" d="M94.7,60C100.9,60,106,54.9,106,48.7L106,11.3C106,5.1,100.9,0,94.7,0L11.3,0C5.1,0,0,5.1,0,11.3L0,48.7C0,54.9,5.1,60,11.3,60L94.7,60z" /><text class="st1"><tspan class="st2" x="14" y="36">一键收份子钱</tspan></text></g><g id="shape104" transform="translate(1413.52,1325.88)"><path fill="none" stroke="rgb(35, 110, 161)" d="M0,0L92,0L92,98.2L119.6,98.2" /><path fill="rgb(35, 110, 161)" stroke="rgb(35, 110, 161)" d="M124,98.2L118.8,95.2C119.3,96.1,119.6,97.1,119.6,98.2C119.6,99.3,119.3,100.3,118.8,101.2L124,98.2z" stroke-linecap="round" stroke-width="1" /></g><g id="shape105" transform="translate(1643.52,1325.88)"><path fill="none" stroke="rgb(35, 110, 161)" d="M0,0L87.1,0" /><path fill="rgb(35, 110, 161)" stroke="rgb(35, 110, 161)" d="M91.5,0L86.3,-3C86.8,-2.1,87.1,-1.1,87.1,0C87.1,1.1,86.8,2.1,86.3,3L91.5,0z" stroke-linecap="round" stroke-width="1" /></g><g id="shape106" transform="translate(1077,1776.93)"><path fill="rgb(52, 152, 219)" stroke="rgb(52, 152, 219)" d="M94.7,60C100.9,60,106,54.9,106,48.7L106,11.3C106,5.1,100.9,0,94.7,0L11.3,0C5.1,0,0,5.1,0,11.3L0,48.7C0,54.9,5.1,60,11.3,60L94.7,60z" /><text class="st1"><tspan class="st2" x="7.5" y="36">下一代通信技术</tspan></text></g><g id="shape107" transform="translate(1299.52,1806.93)"><path fill="none" stroke="rgb(35, 110, 161)" d="M0,0L-112.1,0" /><path fill="rgb(35, 110, 161)" stroke="rgb(35, 110, 161)" d="M-116.5,0L-111.3,3C-111.8,2.1,-112.1,1.1,-112.1,-0C-112.1,-1.1,-111.8,-2.1,-111.3,-3L-116.5,0z" stroke-linecap="round" stroke-width="1" /></g><g id="shape108" transform="translate(1077,1890.93)"><path fill="rgb(52, 152, 219)" stroke="rgb(52, 152, 219)" d="M94.7,60C100.9,60,106,54.9,106,48.7L106,11.3C106,5.1,100.9,0,94.7,0L11.3,0C5.1,0,0,5.1,0,11.3L0,48.7C0,54.9,5.1,60,11.3,60L94.7,60z" /><text class="st1"><tspan class="st2" x="7.5" y="36">全球性计算平台</tspan></text></g><g id="shape109" transform="translate(1299.52,1920.93)"><path fill="none" stroke="rgb(35, 110, 161)" d="M0,0L-112.1,0" /><path fill="rgb(35, 110, 161)" stroke="rgb(35, 110, 161)" d="M-116.5,0L-111.3,3C-111.8,2.1,-112.1,1.1,-112.1,-0C-112.1,-1.1,-111.8,-2.1,-111.3,-3L-116.5,0z" stroke-linecap="round" stroke-width="1" /></g><g id="shape110" transform="translate(1667,1776.43)"><path fill="rgb(52, 152, 219)" stroke="rgb(52, 152, 219)" d="M94.7,60C100.9,60,106,54.9,106,48.7L106,11.3C106,5.1,100.9,0,94.7,0L11.3,0C5.1,0,0,5.1,0,11.3L0,48.7C0,54.9,5.1,60,11.3,60L94.7,60z" /><text class="st1"><tspan class="st2" x="7.5" y="29">资本促进技术变</tspan><tspan class="st2" x="46.5" y="43">革</tspan></text></g><g id="shape111" transform="translate(1621,1806.43)"><path fill="none" stroke="rgb(35, 110, 161)" d="M0,0L41.6,0" /><path fill="rgb(35, 110, 161)" stroke="rgb(35, 110, 161)" d="M46,0L40.8,-3C41.3,-2.1,41.6,-1.1,41.6,0C41.6,1.1,41.3,2.1,40.8,3L46,0z" stroke-linecap="round" stroke-width="1" /></g><g id="shape112" transform="translate(1735,1394.05)"><path fill="rgb(52, 152, 219)" stroke="rgb(52, 152, 219)" d="M94.7,60C100.9,60,106,54.9,106,48.7L106,11.3C106,5.1,100.9,0,94.7,0L11.3,0C5.1,0,0,5.1,0,11.3L0,48.7C0,54.9,5.1,60,11.3,60L94.7,60z" /><text class="st1"><tspan class="st2" x="27" y="36">家族大会</tspan></text></g><g id="shape113" transform="translate(1643.52,1325.88)"><path fill="none" stroke="rgb(35, 110, 161)" d="M0,0L59.5,0L59.5,98.2L87.1,98.2" /><path fill="rgb(35, 110, 161)" stroke="rgb(35, 110, 161)" d="M91.5,98.2L86.3,95.2C86.8,96.1,87.1,97.1,87.1,98.2C87.1,99.3,86.8,100.3,86.3,101.2L91.5,98.2z" stroke-linecap="round" stroke-width="1" /></g><g id="shape114" transform="translate(572.52,1259)"><path fill="rgb(52, 152, 219)" stroke="rgb(52, 152, 219)" d="M94.7,60C100.9,60,106,54.9,106,48.7L106,11.3C106,5.1,100.9,0,94.7,0L11.3,0C5.1,0,0,5.1,0,11.3L0,48.7C0,54.9,5.1,60,11.3,60L94.7,60z" /><text class="st1"><tspan class="st2" x="40" y="36">直播</tspan></text></g><g id="shape115" transform="translate(587.52,1200.18)"><path fill="none" stroke="rgb(35, 110, 161)" d="M0,0L0,26.8L38,26.8L38,54.4" /><path fill="rgb(35, 110, 161)" stroke="rgb(35, 110, 161)" d="M38,58.8L41,53.6C40.1,54.1,39.1,54.4,38,54.4C36.9,54.4,35.9,54.1,35,53.6L38,58.8z" stroke-linecap="round" stroke-width="1" /></g><g id="shape116" transform="translate(420,1259)"><path fill="rgb(52, 152, 219)" stroke="rgb(52, 152, 219)" d="M94.7,60C100.9,60,106,54.9,106,48.7L106,11.3C106,5.1,100.9,0,94.7,0L11.3,0C5.1,0,0,5.1,0,11.3L0,48.7C0,54.9,5.1,60,11.3,60L94.7,60z" /><text class="st1"><tspan class="st2" x="40" y="36">电商</tspan></text></g><g id="shape117" transform="translate(587.52,1200.18)"><path fill="none" stroke="rgb(35, 110, 161)" d="M0,0L0,26.8L-114.5,26.8L-114.5,54.4" /><path fill="rgb(35, 110, 161)" stroke="rgb(35, 110, 161)" d="M-114.5,58.8L-111.5,53.6C-112.4,54.1,-113.4,54.4,-114.5,54.4C-115.6,54.4,-116.6,54.1,-117.5,53.6L-114.5,58.8z" stroke-linecap="round" stroke-width="1" /></g><g id="shape118" transform="translate(1312.52,717)"><path fill="rgb(52, 152, 219)" stroke="rgb(52, 152, 219)" d="M22,44L92,44C104.2,44,114,34.2,114,22C114,9.8,104.2,0,92,0L22,0C9.8,0,0,9.8,0,22C0,34.2,9.8,44,22,44z" /><text class="st1"><tspan class="st2" x="31" y="28">家庭娱乐</tspan></text></g><g id="shape119" transform="translate(1227.52,848.88)"><path fill="none" stroke="rgb(35, 110, 161)" d="M0,0L53,0L53,-109.9L80.6,-109.9" /><path fill="rgb(35, 110, 161)" stroke="rgb(35, 110, 161)" d="M85,-109.9L79.8,-112.9C80.3,-112,80.6,-111,80.6,-109.9C80.6,-108.8,80.3,-107.8,79.8,-106.9L85,-109.9z" stroke-linecap="round" stroke-width="1" /></g><g id="shape120" transform="translate(1465.02,597)"><path fill="rgb(52, 152, 219)" stroke="rgb(52, 152, 219)" d="M94.7,60C100.9,60,106,54.9,106,48.7L106,11.3C106,5.1,100.9,0,94.7,0L11.3,0C5.1,0,0,5.1,0,11.3L0,48.7C0,54.9,5.1,60,11.3,60L94.7,60z" /><text class="st1"><tspan class="st2" x="40" y="36">麻将</tspan></text></g><g id="shape121" transform="translate(1465.02,667)"><path fill="rgb(52, 152, 219)" stroke="rgb(52, 152, 219)" d="M94.7,60C100.9,60,106,54.9,106,48.7L106,11.3C106,5.1,100.9,0,94.7,0L11.3,0C5.1,0,0,5.1,0,11.3L0,48.7C0,54.9,5.1,60,11.3,60L94.7,60z" /><text class="st1"><tspan class="st2" x="40" y="36">扑克</tspan></text></g><g id="shape122" transform="translate(1465.02,738)"><path fill="rgb(52, 152, 219)" stroke="rgb(52, 152, 219)" d="M94.7,60C100.9,60,106,54.9,106,48.7L106,11.3C106,5.1,100.9,0,94.7,0L11.3,0C5.1,0,0,5.1,0,11.3L0,48.7C0,54.9,5.1,60,11.3,60L94.7,60z" /><text class="st1"><tspan class="st2" x="40" y="36">象棋</tspan></text></g><g id="shape123" transform="translate(1565.52,463.2)"><path fill="none" stroke="rgb(35, 110, 161)" d="M0,0L0,-60.8" /><path fill="rgb(35, 110, 161)" stroke="rgb(35, 110, 161)" d="M0,-65.2L-3,-60C-2.1,-60.5,-1.1,-60.8,-0,-60.8C1.1,-60.8,2.1,-60.5,3,-60L0,-65.2z" stroke-linecap="round" stroke-width="1" /></g><g id="shape124" transform="translate(1426.52,739)"><path fill="none" stroke="rgb(35, 110, 161)" d="M0,0L22.5,0L22.5,-112L34.1,-112" /><path fill="rgb(35, 110, 161)" stroke="rgb(35, 110, 161)" d="M38.5,-112L33.3,-115C33.8,-114.1,34.1,-113.1,34.1,-112C34.1,-110.9,33.8,-109.9,33.3,-109L38.5,-112z" stroke-linecap="round" stroke-width="1" /></g><g id="shape125" transform="translate(1426.52,739)"><path fill="none" stroke="rgb(35, 110, 161)" d="M0,0L22.5,0L22.5,-42L34.1,-42" /><path fill="rgb(35, 110, 161)" stroke="rgb(35, 110, 161)" d="M38.5,-42L33.3,-45C33.8,-44.1,34.1,-43.1,34.1,-42C34.1,-40.9,33.8,-39.9,33.3,-39L38.5,-42z" stroke-linecap="round" stroke-width="1" /></g><g id="shape126" transform="translate(1426.52,739)"><path fill="none" stroke="rgb(35, 110, 161)" d="M0,0L22.5,0L22.5,29L34.1,29" /><path fill="rgb(35, 110, 161)" stroke="rgb(35, 110, 161)" d="M38.5,29L33.3,26C33.8,26.9,34.1,27.9,34.1,29C34.1,30.1,33.8,31.1,33.3,32L38.5,29z" stroke-linecap="round" stroke-width="1" /></g></svg>