<svg id="page1" xmlns="http://www.w3.org/2000/svg" xmlns:xlink="http://www.w3.org/1999/xlink" xmlns:ev="http://www.w3.org/2001/xml-events" width="1123" height="794" viewBox="0 0 1123 794"><style type="text/css"><![CDATA[
.st1 {fill:#000000;font-family:Arial;font-size:10pt}
.st2 {fill:#ffffff}
.st3 {fill:#1e776d}
.st4 {fill:#1e776d;font-size:22pt}
]]></style><rect width="1123" height="794" x="0" y="0" fill="#ffffff" stroke="#808080" /><g transform="translate(76.76,169.64)"><path id="shape1" fill="rgb(51, 181, 166)" stroke="rgb(51, 181, 166)" d="M114,34C114,52.8,88.5,68,57,68C25.5,68,0,52.8,0,34C0,15.2,25.5,0,57,0C88.5,0,114,15.2,114,34" /><path /><text class="st1"><tspan class="st2" x="50.5" y="39.5">我</tspan></text></g><g transform="translate(237.02,137.64)"><path id="shape2" fill="rgb(51, 181, 166)" stroke="rgb(51, 181, 166)" d="M114,34C114,52.8,88.5,68,57,68C25.5,68,0,52.8,0,34C0,15.2,25.5,0,57,0C88.5,0,114,15.2,114,34" /><path /><text class="st1"><tspan class="st2" x="44" y="39.5">父亲</tspan></text></g><g transform="translate(383.76,169.64)"><path id="shape3" fill="rgb(51, 181, 166)" stroke="rgb(51, 181, 166)" d="M114,34C114,52.8,88.5,68,57,68C25.5,68,0,52.8,0,34C0,15.2,25.5,0,57,0C88.5,0,114,15.2,114,34" /><path /><text class="st1"><tspan class="st2" x="44" y="39.5">母亲</tspan></text></g><g transform="translate(638.76,169.64)"><path id="shape4" fill="rgb(51, 181, 166)" stroke="rgb(51, 181, 166)" d="M114,34C114,52.8,88.5,68,57,68C25.5,68,0,52.8,0,34C0,15.2,25.5,0,57,0C88.5,0,114,15.2,114,34" /><path /><text class="st1"><tspan class="st2" x="26.5" y="39.5">远房亲戚A</tspan></text></g><g transform="translate(792.02,137.64)"><path id="shape5" fill="rgb(51, 181, 166)" stroke="rgb(51, 181, 166)" d="M114,34C114,52.8,88.5,68,57,68C25.5,68,0,52.8,0,34C0,15.2,25.5,0,57,0C88.5,0,114,15.2,114,34" /><path /><text class="st1"><tspan class="st2" x="26.5" y="39.5">远房亲戚B</tspan></text></g><g transform="translate(936.76,169.64)"><path id="shape6" fill="rgb(51, 181, 166)" stroke="rgb(51, 181, 166)" d="M114,34C114,52.8,88.5,68,57,68C25.5,68,0,52.8,0,34C0,15.2,25.5,0,57,0C88.5,0,114,15.2,114,34" /><path /><text class="st1"><tspan class="st2" x="26" y="39.5">远房亲戚C</tspan></text></g><g id="shape7" transform="translate(249.02,285.3)"><path fill="rgb(60, 111, 158)" stroke="rgb(60, 111, 158)" d="M0,0L0,53.7L90,53.7L90,0L0,0z" /><text class="st1"><tspan class="st2" x="27.5" y="32.3">家庭A</tspan></text></g><g id="shape8" transform="translate(804.02,285.3)"><path fill="rgb(60, 111, 158)" stroke="rgb(60, 111, 158)" d="M0,0L0,53.7L90,53.7L90,0L0,0z" /><text class="st1"><tspan class="st2" x="27" y="32.3">家庭C</tspan></text></g><path id="shape9" fill="none" stroke="rgb(51, 181, 166)" transform="matrix(0.88,0.48,-0.48,0.88,170.2,229.5)" d="M0,0L115.6,0" /><path id="shape10" fill="none" stroke="rgb(51, 181, 166)" transform="matrix(0,-1,1,0,294,285.3)" d="M0,0L79.7,0" /><path id="shape11" fill="none" stroke="rgb(51, 181, 166)" transform="matrix(0.84,-0.54,0.54,0.84,316.5,285.3)" d="M0,0L104,0" /><path id="shape12" fill="none" stroke="rgb(51, 181, 166)" transform="matrix(0,-1,1,0,849,285.3)" d="M0,0L79.7,0" /><path id="shape13" fill="none" stroke="rgb(51, 181, 166)" transform="matrix(0.86,0.51,-0.51,0.86,732.2,229.5)" d="M0,0L109.6,0" /><path id="shape14" fill="none" stroke="rgb(51, 181, 166)" transform="matrix(0.84,-0.55,0.55,0.84,871.5,285.3)" d="M0,0L102.3,0" /><path id="shape15" fill="none" stroke="rgb(51, 181, 166)" transform="matrix(0,1,-1,0,294,339)" d="M0,0L45.5,0" /><g id="shape16" transform="translate(237.02,384.47)"><path fill="rgb(61, 157, 181)" stroke="rgb(61, 157, 181)" d="M0,33L57,0L114,33L57,66L0,33z" /><text class="st1"><tspan class="st2" x="44" y="38.5">哥哥</tspan></text></g><g id="shape17" transform="matrix(0,1,-1,0,849,339)"><path fill="none" stroke="rgb(51, 181, 166)" d="M0,0L45.5,0" /><rect width="0" height="14" x="18.2" y="-21.8" fill="rgb(255, 255, 255)" /><text class="st1"><tspan class="st3" x="18.2" y="-10.8">1</tspan></text></g><g id="shape18" transform="translate(792.02,384.47)"><path fill="rgb(61, 157, 181)" stroke="rgb(61, 157, 181)" d="M0,33L57,0L114,33L57,66L0,33z" /><text class="st1"><tspan class="st2" x="22" y="39">Constitutive</tspan></text></g><g id="shape19" transform="matrix(0,1,-1,0,294,450.5)"><path fill="none" stroke="rgb(51, 181, 166)" d="M0,0L45.5,0" /><rect width="0" height="14" x="18.2" y="-21.8" fill="rgb(255, 255, 255)" /><text class="st1"><tspan class="st3" x="18.2" y="-10.8">n</tspan></text></g><g id="shape20" transform="matrix(0,1,-1,0,849,450.5)"><path fill="none" stroke="rgb(51, 181, 166)" d="M0,0L48,0" /><rect width="0" height="14" x="19.5" y="-21.8" fill="rgb(255, 255, 255)" /><text class="st1"><tspan class="st3" x="19.5" y="-10.8">a</tspan></text><rect width="0" height="14" x="29" y="-21.8" fill="rgb(255, 255, 255)" /><text class="st1"><tspan class="st3" x="29" y="-10.8">n</tspan></text></g><g id="shape21" transform="translate(249.02,495.95)"><path fill="rgb(60, 111, 158)" stroke="rgb(60, 111, 158)" d="M0,0L0,53.7L90,53.7L90,0L0,0z" /><text class="st1"><tspan class="st2" x="27.5" y="32.3">家庭B</tspan></text></g><g id="shape22" transform="translate(808.2,498.45)"><path fill="rgb(60, 111, 158)" stroke="rgb(60, 111, 158)" d="M0,0L0,48.7L81.6,48.7L81.6,0L0,0z" /><text class="st1"><tspan class="st2" x="22.8" y="29.8">家庭D</tspan></text></g><g id="shape23" transform="translate(339.02,522.8)"><path fill="none" stroke="rgb(51, 181, 166)" d="M0,0L183,0" /><rect width="0" height="14" x="10" y="-21.8" fill="rgb(255, 255, 255)" /><text class="st1"><tspan class="st3" x="10" y="-10.8">m</tspan></text></g><g id="shape24" transform="translate(522.02,489.8)"><path fill="rgb(61, 157, 181)" d="M0,33L57,0L114,33L57,66L0,33z" /><path fill="none" stroke="rgb(61, 157, 181)" d="M0,33L57,0L114,33L57,66L0,33zM8,33L57,4.6L106,33L57,61.4L8,33z" /><text class="st1"><tspan class="st2" x="44" y="38.5">嫂子</tspan></text></g><g id="shape25" transform="translate(636.02,522.8)"><path fill="none" stroke="rgb(51, 181, 166)" d="M0,0L172.2,0" /><rect width="0" height="14" x="81.6" y="-21.8" fill="rgb(255, 255, 255)" /><text class="st1"><tspan class="st3" x="81.6" y="-10.8">n</tspan></text></g><path id="shape26" fill="none" stroke="rgb(51, 181, 166)" transform="matrix(0,-1,1,0,579,489.8)" d="M0,0L53.3,0" /><g transform="translate(522.02,368.49)"><path id="shape27" fill="rgb(51, 181, 166)" stroke="rgb(51, 181, 166)" d="M114,34C114,52.8,88.5,68,57,68C25.5,68,0,52.8,0,34C0,15.2,25.5,0,57,0C88.5,0,114,15.2,114,34" /><path /><text class="st1"><tspan class="st2" x="24.5" y="39.5">哥哥结婚啦</tspan></text></g><g transform="translate(43.76,433.64)"><path id="shape28" fill="rgb(51, 181, 166)" stroke="rgb(51, 181, 166)" d="M114,34C114,52.8,88.5,68,57,68C25.5,68,0,52.8,0,34C0,15.2,25.5,0,57,0C88.5,0,114,15.2,114,34" /><path /><text class="st1"><tspan class="st2" x="44" y="39.5">哥哥</tspan></text></g><g transform="translate(55.02,562.64)"><path id="shape29" fill="rgb(51, 181, 166)" stroke="rgb(51, 181, 166)" d="M114,34C114,52.8,88.5,68,57,68C25.5,68,0,52.8,0,34C0,15.2,25.5,0,57,0C88.5,0,114,15.2,114,34" /><path /><text class="st1"><tspan class="st2" x="44" y="39.5">嫂子</tspan></text></g><g transform="translate(187.02,646.49)"><path id="shape30" fill="rgb(51, 181, 166)" stroke="rgb(51, 181, 166)" d="M114,34C114,52.8,88.5,68,57,68C25.5,68,0,52.8,0,34C0,15.2,25.5,0,57,0C88.5,0,114,15.2,114,34" /><path /><text class="st1"><tspan class="st2" x="44" y="39.5">侄子</tspan></text></g><g transform="translate(369.76,618.49)"><path id="shape31" fill="rgb(51, 181, 166)" stroke="rgb(51, 181, 166)" d="M114,34C114,52.8,88.5,68,57,68C25.5,68,0,52.8,0,34C0,15.2,25.5,0,57,0C88.5,0,114,15.2,114,34" /><path /><text class="st1"><tspan class="st2" x="44" y="39.5">侄女</tspan></text></g><g transform="translate(964.76,433.64)"><path id="shape32" fill="rgb(51, 181, 166)" stroke="rgb(51, 181, 166)" d="M114,34C114,52.8,88.5,68,57,68C25.5,68,0,52.8,0,34C0,15.2,25.5,0,57,0C88.5,0,114,15.2,114,34" /><path /><text class="st1"><tspan class="st2" x="51.5" y="40">...</tspan></text></g><g transform="translate(952.02,562.64)"><path id="shape33" fill="rgb(51, 181, 166)" stroke="rgb(51, 181, 166)" d="M114,34C114,52.8,88.5,68,57,68C25.5,68,0,52.8,0,34C0,15.2,25.5,0,57,0C88.5,0,114,15.2,114,34" /><path /><text class="st1"><tspan class="st2" x="51.5" y="40">...</tspan></text></g><g transform="translate(808.2,646.49)"><path id="shape34" fill="rgb(51, 181, 166)" stroke="rgb(51, 181, 166)" d="M114,34C114,52.8,88.5,68,57,68C25.5,68,0,52.8,0,34C0,15.2,25.5,0,57,0C88.5,0,114,15.2,114,34" /><path /><text class="st1"><tspan class="st2" x="44" y="39.5">阿姨</tspan></text></g><g transform="translate(647.76,618.49)"><path id="shape35" fill="rgb(51, 181, 166)" stroke="rgb(51, 181, 166)" d="M114,34C114,52.8,88.5,68,57,68C25.5,68,0,52.8,0,34C0,15.2,25.5,0,57,0C88.5,0,114,15.2,114,34" /><path /><text class="st1"><tspan class="st2" x="44" y="39.5">大叔</tspan></text></g><path id="shape36" fill="none" stroke="rgb(51, 181, 166)" transform="matrix(0.91,0.42,-0.42,0.91,157.8,467.6)" d="M0,0L100.4,0" /><path id="shape37" fill="none" stroke="rgb(51, 181, 166)" transform="matrix(0.95,-0.33,0.33,0.95,148.5,570.8)" d="M0,0L106.3,0" /><path id="shape38" fill="none" stroke="rgb(51, 181, 166)" transform="matrix(0.27,-0.96,0.96,0.27,244,646.5)" d="M0,0L100.7,0" /><path id="shape39" fill="none" stroke="rgb(51, 181, 166)" transform="matrix(0.78,0.62,-0.62,0.78,294,549.6)" d="M0,0L123.3,0" /><path id="shape40" fill="none" stroke="rgb(51, 181, 166)" transform="matrix(-0.78,0.63,-0.63,-0.78,808.2,535)" d="M0,0L133,0" /><path id="shape41" fill="none" stroke="rgb(51, 181, 166)" transform="matrix(0.16,0.99,-0.99,0.16,849,547.1)" d="M0,0L100.7,0" /><path id="shape42" fill="none" stroke="rgb(51, 181, 166)" transform="matrix(0.92,0.4,-0.4,0.92,889.8,535)" d="M0,0L90.1,0" /><path id="shape43" fill="none" stroke="rgb(51, 181, 166)" transform="matrix(0.98,-0.18,0.18,0.98,889.8,510.6)" d="M0,0L97,0" /><g id="shape44" transform="translate(326.02,79.21)"><text class="st1"><tspan class="st4" x="180.5" y="32">用户关系图</tspan></text></g></svg>